# xmcd CD database file
#
# Track frame offsets:
#	150
#	24953
#	49393
#	60698
#	86753
#	106325
#	128038
#	166125
#	200773
#	230318
#
# Disc length: 3722 seconds
#
# Revision: 2
# Processed by: cddbd v1.5.2PL0 Copyright (c) Steve Scherf et al.
# Submitted via: CDex 1.50
#
DISCID=800e880a
DTITLE=Gato Barbieri - Finest Hour
DYEAR=2000
DGENRE=Jazz
TTITLE0=Cuando Vuelva a tu lado (What a difference a day makes)
TTITLE1=Nunca Mas
TTITLE2=To Be Continued
TTITLE3=Ngiculela - Es Una Historia - I Am Singing
TTITLE4=Europa (Earth's Cry Heaven's Smile)
TTITLE5=La Podrida
TTITLE6=Latin Lady
TTITLE7=Marissea
TTITLE8=Speak Low
TTITLE9=Bahia
EXTD=YEAR: 2000
EXTT0=
EXTT1=
EXTT2=
EXTT3=
EXTT4=
EXTT5=
EXTT6=
EXTT7=
EXTT8=
EXTT9=
PLAYORDER=
